<svg width="201" height="38" viewBox="0 0 201 38" fill="none" xmlns="http://www.w3.org/2000/svg">
<path d="M63.0312 8.19429C62.5061 8.19429 62.0805 7.76769 62.0805 7.24146V0.952824C62.0805 0.426594 62.5061 0 63.0312 0C63.5562 0 63.9819 0.426594 63.9819 0.952824V7.24146C63.9819 7.76769 63.5562 8.19429 63.0312 8.19429Z" fill="black"/>
<path d="M66.8159 8.24457C66.3584 7.98512 66.1974 7.40312 66.4563 6.94464L68.8311 2.7388C69.09 2.28032 69.6706 2.11898 70.1281 2.37843C70.5855 2.63789 70.7465 3.21988 70.4876 3.67836L68.1129 7.88421C67.854 8.34268 67.2733 8.50402 66.8159 8.24457Z" fill="black"/>

<path d="M59.2284 15.1646C59.2284 14.0974 59.9256 13.1954 60.2742 12.8778C59.97 12.4205 59.4503 12.3696 59.2284 12.4014C57.6313 12.4014 57.1686 13.7989 57.1369 14.4976C55.7679 12.8207 54.475 13.7989 53.9997 14.4976L51.9082 21.4532C50.3871 20.1574 49.3096 21.4215 48.961 22.2155V31.0768C49.2653 32.9824 50.4188 34.3481 50.9575 34.7928C53.6194 36.0124 56.4398 36.5714 57.5172 36.6984C59.7228 36.3173 60.6545 35.0151 60.8446 34.4116L56.8517 30.5051C55.6349 29.5141 55.4574 27.996 55.5208 27.3607C55.825 23.9306 58.9432 23.7083 60.4643 24.0259L59.2284 15.1646Z" fill="black"/>
<path d="M64.2671 14.1165C62.2136 12.9731 61.3199 14.4023 61.1298 15.2599C61.1298 15.641 62.2072 24.2482 62.746 28.5041L60.5594 26.3126C56.9088 25.1693 57.1369 27.5513 57.7073 28.8853L64.0769 34.9833C65.598 36.6603 66.9923 37.3336 67.4994 37.4607C71.4542 37.918 74.6612 36.5714 75.7703 35.8409C78.3372 33.84 77.4816 30.6956 77.4816 30.5051C77.4816 30.3526 76.3407 21.8661 75.7703 17.6419C74.6295 15.8125 72.8866 16.6891 72.1577 17.3561L71.6824 14.1165C70.7697 12.0584 68.8937 13.0049 68.0698 13.7354V12.0203C66.6248 9.58105 64.9325 10.8769 64.2671 11.8297V14.1165Z" fill="black"/>
<path d="M56.1938 2.33329C56.6966 2.09711 57.2953 2.3142 57.531 2.81818L59.5726 7.18446C59.8082 7.68844 59.5916 8.28846 59.0888 8.52464C58.5859 8.76082 57.9872 8.54373 57.7516 8.03975L55.71 3.67347C55.4744 3.16949 55.691 2.56947 56.1938 2.33329Z" fill="black"/>
</svg>