<svg width="201" height="38" viewBox="0 0 201 38" fill="none" xmlns="http://www.w3.org/2000/svg">
<path d="M0.209961 24.4018C0.209961 22.0896 0.686887 20.0331 1.64074 18.2323C2.61678 16.4092 3.9921 14.9974 5.76671 13.997C7.54132 12.9743 9.58212 12.4629 11.8891 12.4629C14.8172 12.4629 17.2795 13.2522 19.2759 14.8307C21.2724 16.387 22.559 18.5102 23.1357 21.2003H16.1149C15.6934 20.311 15.1056 19.6329 14.3514 19.1661C13.6194 18.6992 12.7653 18.4657 11.7893 18.4657C10.2809 18.4657 9.07192 19.0104 8.16244 20.0998C7.27513 21.167 6.83148 22.601 6.83148 24.4018C6.83148 26.2249 7.27513 27.6811 8.16244 28.7705C9.07192 29.8377 10.2809 30.3713 11.7893 30.3713C12.7653 30.3713 13.6194 30.1378 14.3514 29.6709C15.1056 29.2041 15.6934 28.526 16.1149 27.6367H23.1357C22.559 30.3268 21.2724 32.4611 19.2759 34.0396C17.2795 35.5959 14.8172 36.3741 11.8891 36.3741C9.58212 36.3741 7.54132 35.8738 5.76671 34.8734C3.9921 33.8507 2.61678 32.4389 1.64074 30.6381C0.686887 28.815 0.209961 26.7362 0.209961 24.4018Z" fill="black"/>
<path d="M36.2394 31.205H43.5264V36.2073H29.7177V12.6964H36.2394V31.205Z" fill="black"/>
<path d="M102.822 20.5334C102.822 21.9562 102.489 23.2568 101.824 24.4352C101.181 25.5913 100.193 26.525 98.8624 27.2365C97.5537 27.9257 95.9454 28.2703 94.0377 28.2703H90.8102V36.2073H84.2885V12.6964H94.0377C95.9233 12.6964 97.5204 13.0299 98.8292 13.6968C100.16 14.3638 101.158 15.2865 101.824 16.4648C102.489 17.6431 102.822 18.9993 102.822 20.5334ZM93.4055 23.0679C95.2467 23.0679 96.1673 22.223 96.1673 20.5334C96.1673 18.8214 95.2467 17.9655 93.4055 17.9655H90.8102V23.0679H93.4055Z" fill="black"/>
<path d="M127.469 20.5334C127.469 21.9562 127.137 23.2568 126.471 24.4352C125.828 25.5913 124.841 26.525 123.51 27.2365C122.201 27.9257 120.593 28.2703 118.685 28.2703H115.458V36.2073H108.936V12.6964H118.685C120.571 12.6964 122.168 13.0299 123.477 13.6968C124.808 14.3638 125.806 15.2865 126.471 16.4648C127.137 17.6431 127.469 18.9993 127.469 20.5334ZM118.053 23.0679C119.894 23.0679 120.815 22.223 120.815 20.5334C120.815 18.8214 119.894 17.9655 118.053 17.9655H115.458V23.0679H118.053Z" fill="black"/>
<path d="M140.105 17.9321V21.7673H147.592V26.7362H140.105V30.9715H148.59V36.2073H133.583V12.6964H148.59V17.9321H140.105Z" fill="black"/>
<path d="M172.975 12.6964V17.8988H166.719V36.2073H160.198V17.8988H154.009V12.6964H172.975Z" fill="black"/>
<path d="M200.21 12.6964L191.958 28.7372V36.2073H185.403V28.7372L177.151 12.6964H184.604L188.73 21.7673L192.856 12.6964H200.21Z" fill="black"/>
<path d="M59.2284 15.1646C59.2284 14.0974 59.9256 13.1954 60.2742 12.8778C59.97 12.4205 59.4503 12.3696 59.2284 12.4014C57.6313 12.4014 57.1686 13.7989 57.1369 14.4976C55.7679 12.8207 54.475 13.7989 53.9997 14.4976L51.9082 21.4532C50.3871 20.1574 49.3096 21.4215 48.961 22.2155V31.0768C49.2653 32.9824 50.4188 34.3481 50.9575 34.7928C53.6194 36.0124 56.4398 36.5714 57.5172 36.6984C59.7228 36.3173 60.6545 35.0151 60.8446 34.4116L56.8517 30.5051C55.6349 29.5141 55.4574 27.996 55.5208 27.3607C55.825 23.9306 58.9432 23.7083 60.4643 24.0259L59.2284 15.1646Z" fill="black"/>
<path d="M64.2671 14.1165C62.2136 12.9731 61.3199 14.4023 61.1298 15.2599C61.1298 15.641 62.2072 24.2482 62.746 28.5041L60.5594 26.3126C56.9088 25.1693 57.1369 27.5513 57.7073 28.8853L64.0769 34.9833C65.598 36.6603 66.9923 37.3336 67.4994 37.4607C71.4542 37.918 74.6612 36.5714 75.7703 35.8409C78.3372 33.84 77.4816 30.6956 77.4816 30.5051C77.4816 30.3526 76.3407 21.8661 75.7703 17.6419C74.6295 15.8125 72.8866 16.6891 72.1577 17.3561L71.6824 14.1165C70.7697 12.0584 68.8937 13.0049 68.0698 13.7354V12.0203C66.6248 9.58105 64.9325 10.8769 64.2671 11.8297V14.1165Z" fill="black"/>
<path d="M56.1938 2.33329C56.6966 2.09711 57.2953 2.3142 57.531 2.81818L59.5726 7.18446C59.8082 7.68844 59.5916 8.28846 59.0888 8.52464C58.5859 8.76082 57.9872 8.54373 57.7516 8.03975L55.71 3.67347C55.4744 3.16949 55.691 2.56947 56.1938 2.33329Z" fill="black"/>
<path d="M63.0312 8.19429C62.5061 8.19429 62.0805 7.76769 62.0805 7.24146V0.952824C62.0805 0.426594 62.5061 0 63.0312 0C63.5562 0 63.9819 0.426594 63.9819 0.952824V7.24146C63.9819 7.76769 63.5562 8.19429 63.0312 8.19429Z" fill="black"/>
<path d="M66.8159 8.24457C66.3584 7.98512 66.1974 7.40312 66.4563 6.94464L68.8311 2.7388C69.09 2.28032 69.6706 2.11898 70.1281 2.37843C70.5855 2.63789 70.7465 3.21988 70.4876 3.67836L68.1129 7.88421C67.854 8.34268 67.2733 8.50402 66.8159 8.24457Z" fill="black"/>
</svg>
