<svg width="29" height="30" viewBox="0 0 29 30" fill="none" xmlns="http://www.w3.org/2000/svg">
<path d="M26.229 15.7033V14.0712L28.2772 12.279C28.6547 11.9462 28.9025 11.4907 28.9767 10.9929C29.0509 10.4951 28.9467 9.9871 28.6826 9.5587L26.165 5.2916C25.9779 4.96758 25.7089 4.69845 25.385 4.51121C25.0611 4.32397 24.6936 4.22521 24.3195 4.22482C24.0876 4.22305 23.857 4.25908 23.6367 4.3315L21.0445 5.20626C20.5969 4.90885 20.13 4.64156 19.647 4.40617L19.1029 1.7179C19.0054 1.22676 18.7382 0.785582 18.3481 0.471589C17.9581 0.157596 17.47 -0.0092022 16.9694 0.000391966H11.9769C11.4762 -0.0092022 10.9882 0.157596 10.5981 0.471589C10.2081 0.785582 9.94087 1.22676 9.84331 1.7179L9.29926 4.40617C8.81274 4.64151 8.34233 4.90878 7.89112 5.20626L5.35219 4.28883C5.12955 4.23082 4.89899 4.20921 4.66945 4.22482C4.29531 4.22521 3.92784 4.32397 3.60392 4.51121C3.27999 4.69845 3.011 4.96758 2.82393 5.2916L0.306342 9.5587C0.057343 9.98646 -0.0351841 10.4875 0.0446081 10.976C0.1244 11.4645 0.371547 11.91 0.74372 12.2363L2.75993 14.0818V15.714L0.74372 17.5062C0.361034 17.8347 0.107128 18.2883 0.027059 18.7862C-0.0530098 19.2842 0.045938 19.7945 0.306342 20.2265L2.82393 24.4936C3.011 24.8176 3.27999 25.0867 3.60392 25.2739C3.92784 25.4612 4.29531 25.5599 4.66945 25.5603C4.90132 25.5621 5.13192 25.5261 5.35219 25.4537L7.94445 24.5789C8.39201 24.8763 8.85887 25.1436 9.34193 25.379L9.88599 28.0673C9.98354 28.5584 10.2507 28.9996 10.6408 29.3136C11.0308 29.6276 11.5189 29.7944 12.0195 29.7848H17.0547C17.5554 29.7944 18.0434 29.6276 18.4335 29.3136C18.8235 28.9996 19.0907 28.5584 19.1883 28.0673L19.7323 25.379C20.2188 25.1436 20.6893 24.8764 21.1405 24.5789L23.7221 25.4537C23.9423 25.5261 24.1729 25.5621 24.4048 25.5603C24.7789 25.5599 25.1464 25.4612 25.4703 25.2739C25.7943 25.0867 26.0632 24.8176 26.2503 24.4936L28.6826 20.2265C28.9316 19.7987 29.0241 19.2977 28.9443 18.8092C28.8645 18.3207 28.6174 17.8751 28.2452 17.5488L26.229 15.7033ZM24.3195 23.4268L20.6604 22.1893C19.8039 22.9148 18.8249 23.482 17.7695 23.8642L17.012 27.6939H11.9769L11.2195 23.9068C10.1723 23.5138 9.19868 22.9476 8.33916 22.232L4.66945 23.4268L2.15186 19.1597L5.05349 16.5994C4.85624 15.4952 4.85624 14.3647 5.05349 13.2604L2.15186 10.6255L4.66945 6.35837L8.32849 7.59583C9.18505 6.87031 10.164 6.30317 11.2195 5.921L11.9769 2.09127H17.012L17.7695 5.87832C18.8166 6.27135 19.7902 6.83751 20.6497 7.55316L24.3195 6.35837L26.837 10.6255L23.9354 13.1857C24.1327 14.29 24.1327 15.4205 23.9354 16.5247L26.837 19.1597L24.3195 23.4268Z" fill="black"/>
<path d="M14.4944 21.2933C13.2285 21.2933 11.991 20.9179 10.9384 20.2146C9.88581 19.5113 9.06542 18.5116 8.58097 17.3421C8.09652 16.1725 7.96977 14.8856 8.21674 13.644C8.46371 12.4023 9.07331 11.2619 9.96846 10.3667C10.8636 9.47157 12.0041 8.86196 13.2457 8.61499C14.4873 8.36802 15.7743 8.49478 16.9438 8.97923C18.1134 9.46368 19.113 10.2841 19.8164 11.3366C20.5197 12.3892 20.8951 13.6267 20.8951 14.8927C20.9036 15.7356 20.7439 16.5717 20.4253 17.3522C20.1066 18.1326 19.6355 18.8416 19.0394 19.4377C18.4434 20.0337 17.7343 20.5049 16.9539 20.8235C16.1735 21.1422 15.3373 21.3019 14.4944 21.2933ZM14.4944 10.6256C13.9304 10.6124 13.3697 10.7138 12.846 10.9236C12.3224 11.1334 11.8467 11.4472 11.4479 11.8461C11.049 12.245 10.7351 12.7206 10.5253 13.2443C10.3156 13.7679 10.2142 14.3287 10.2273 14.8927C10.2142 15.4566 10.3156 16.0174 10.5253 16.541C10.7351 17.0647 11.049 17.5403 11.4479 17.9392C11.8467 18.3381 12.3224 18.6519 12.846 18.8617C13.3697 19.0715 13.9304 19.1729 14.4944 19.1598C15.0584 19.1729 15.6191 19.0715 16.1428 18.8617C16.6664 18.6519 17.1421 18.3381 17.541 17.9392C17.9398 17.5403 18.2537 17.0647 18.4635 16.541C18.6733 16.0174 18.7746 15.4566 18.7615 14.8927C18.7746 14.3287 18.6733 13.7679 18.4635 13.2443C18.2537 12.7206 17.9398 12.245 17.541 11.8461C17.1421 11.4472 16.6664 11.1334 16.1428 10.9236C15.6191 10.7138 15.0584 10.6124 14.4944 10.6256Z" fill="black"/>
</svg>
